<svg xmlns="http://www.w3.org/2000/svg" xmlns:xlink="http://www.w3.org/1999/xlink" width="2000" zoomAndPan="magnify" viewBox="0 0 1500 1499.999933" height="2000" preserveAspectRatio="xMidYMid meet" version="1.0"><defs><g/><clipPath id="8ffd9b3f23"><path d="M 562 579 L 1325 579 L 1325 1143 L 562 1143 Z M 562 579 " clip-rule="nonzero"/></clipPath><clipPath id="61136c8302"><path d="M 526.824219 661.519531 L 1266.652344 482.199219 L 1395.445312 1013.5625 L 655.617188 1192.882812 Z M 526.824219 661.519531 " clip-rule="nonzero"/></clipPath><clipPath id="167678c9f9"><path d="M 526.824219 661.519531 L 1266.652344 482.199219 L 1395.445312 1013.5625 L 655.617188 1192.882812 Z M 526.824219 661.519531 " clip-rule="nonzero"/></clipPath><clipPath id="e4fca9785b"><rect x="0" width="391" y="0" height="430"/></clipPath><clipPath id="e496e40102"><rect x="0" width="800" y="0" height="516"/></clipPath></defs><g clip-path="url(#8ffd9b3f23)"><g clip-path="url(#61136c8302)"><g clip-path="url(#167678c9f9)"><path fill="#9cff1e" d="M 1311.597656 733.226562 C 1314.367188 743.714844 1320.171875 749.972656 1324.941406 753.492188 C 1317.75 763.230469 1310.519531 772.921875 1303.242188 782.578125 C 1295.328125 776.625 1282.449219 763.976562 1276.816406 742.667969 C 1263.464844 760.539062 1249.953125 778.28125 1236.28125 795.902344 C 1220.664062 816.027344 1204.832031 835.992188 1188.757812 855.777344 C 1172.683594 875.5625 1156.355469 895.164062 1139.730469 914.535156 C 1123.097656 933.902344 1106.160156 953.039062 1088.808594 971.859375 C 1071.449219 990.671875 1053.6875 1009.171875 1035.289062 1027.164062 C 1016.890625 1045.152344 997.878906 1062.652344 977.738281 1079.195312 C 957.546875 1095.675781 936.390625 1111.40625 912.304688 1124.332031 C 900.21875 1130.714844 887.332031 1136.425781 872.78125 1139.960938 C 865.484375 1141.664062 857.738281 1142.800781 849.523438 1142.6875 C 845.421875 1142.640625 841.203125 1142.199219 836.976562 1141.441406 C 832.734375 1140.605469 828.5 1139.367188 824.378906 1137.703125 C 820.285156 1135.96875 816.34375 1133.835938 812.691406 1131.339844 C 809.382812 1128.792969 806.023438 1126.4375 803.085938 1123.363281 C 799.972656 1120.539062 797.367188 1117.164062 794.757812 1113.847656 C 793.59375 1112.089844 792.449219 1110.320312 791.320312 1108.539062 C 790.726562 1107.660156 790.238281 1106.742188 789.78125 1105.808594 L 788.375 1103.023438 C 784.769531 1095.566406 782.34375 1087.742188 781.148438 1080.144531 L 780.632812 1077.28125 L 780.328125 1074.460938 C 780.136719 1072.582031 779.90625 1070.6875 779.773438 1068.820312 C 779.660156 1065.144531 779.390625 1061.390625 779.570312 1057.8125 C 779.882812 1043.316406 782.125 1029.613281 785.210938 1016.464844 C 788.296875 1003.304688 792.191406 990.617188 796.480469 978.207031 C 805.097656 953.402344 815.261719 929.660156 825.832031 906.300781 C 836.410156 882.945312 847.460938 860.003906 858.398438 837.164062 C 869.335938 814.324219 880.1875 791.589844 890.273438 768.75 C 900.308594 745.933594 909.75 722.9375 916.558594 699.9375 C 919.929688 688.460938 922.585938 676.976562 923.867188 665.933594 L 924.203125 661.851562 L 924.375 659.8125 L 924.417969 657.832031 C 924.433594 656.519531 924.5 655.183594 924.496094 653.886719 L 924.328125 650.089844 C 923.957031 645.128906 923.132812 640.515625 921.722656 636.59375 C 920.226562 632.738281 918.25 629.601562 915.648438 626.925781 C 914.988281 626.269531 914.410156 625.535156 913.570312 624.996094 L 912.429688 624.09375 C 912.039062 623.789062 911.730469 623.460938 911.203125 623.179688 C 910.25 622.601562 909.304688 622.003906 908.367188 621.390625 L 905.382812 619.882812 C 901.332031 618.015625 896.949219 616.730469 892.257812 616 C 887.570312 615.25 882.507812 615.277344 877.347656 615.640625 C 866.976562 616.421875 856.046875 619.355469 845.25 623.257812 C 834.4375 627.285156 823.707031 632.378906 813.164062 638.097656 C 792.085938 649.640625 771.792969 663.609375 752.160156 678.574219 C 732.527344 693.578125 713.535156 709.683594 695.054688 726.433594 C 676.578125 743.191406 658.574219 760.574219 641.035156 778.433594 C 632.257812 787.359375 623.601562 796.40625 615.066406 805.554688 C 610.800781 810.132812 606.566406 814.734375 602.375 819.359375 C 598.214844 823.957031 593.96875 828.699219 590.054688 833.214844 L 562.75 809.738281 C 567.132812 804.679688 571.347656 799.980469 575.6875 795.179688 C 580.003906 790.414062 584.351562 785.691406 588.730469 780.996094 C 597.484375 771.613281 606.351562 762.34375 615.347656 753.195312 C 633.328125 734.886719 651.804688 717.042969 670.875 699.742188 C 689.957031 682.457031 709.65625 665.738281 730.300781 649.957031 C 750.96875 634.210938 772.527344 619.304688 795.925781 606.480469 C 807.660156 600.117188 819.863281 594.28125 832.8125 589.460938 C 845.820312 584.777344 859.5625 580.921875 874.503906 579.738281 C 881.964844 579.199219 889.660156 579.164062 897.515625 580.375 C 905.34375 581.558594 913.242188 583.816406 920.6875 587.285156 C 922.523438 588.207031 924.371094 589.109375 926.171875 590.089844 L 931.386719 593.355469 C 932.242188 593.859375 933.121094 594.585938 933.988281 595.25 L 936.578125 597.289062 C 938.335938 598.589844 939.886719 600.21875 941.457031 601.808594 C 947.714844 608.191406 952.492188 616.0625 955.484375 624.0625 C 958.398438 632.085938 959.703125 640.066406 960.261719 647.730469 L 960.503906 653.429688 C 960.515625 655.296875 960.445312 657.132812 960.410156 658.984375 L 960.332031 661.753906 L 960.117188 664.453125 L 959.664062 669.84375 C 958.023438 683.992188 954.859375 697.269531 951.105469 710.105469 C 943.496094 735.734375 933.566406 759.714844 923.222656 783.285156 C 912.828125 806.820312 901.832031 829.835938 890.875 852.714844 C 879.917969 875.59375 868.96875 898.332031 858.632812 921.15625 C 848.304688 943.96875 838.523438 966.894531 830.507812 989.988281 C 826.515625 1001.527344 822.984375 1013.109375 820.285156 1024.628906 C 817.5625 1036.136719 815.796875 1047.609375 815.574219 1058.46875 C 815.414062 1061.222656 815.664062 1063.800781 815.707031 1066.457031 C 815.800781 1067.75 815.976562 1069 816.09375 1070.277344 L 816.28125 1072.179688 L 816.628906 1073.988281 C 817.371094 1078.921875 818.859375 1083.300781 820.746094 1087.242188 L 821.46875 1088.703125 C 821.691406 1089.203125 821.9375 1089.6875 822.257812 1090.109375 C 822.847656 1090.988281 823.417969 1091.882812 823.972656 1092.789062 C 825.34375 1094.390625 826.53125 1096.132812 828.171875 1097.527344 C 829.566406 1099.109375 831.503906 1100.316406 833.148438 1101.703125 C 834.738281 1102.773438 836.394531 1103.65625 838.125 1104.417969 C 839.894531 1105.109375 841.75 1105.664062 843.726562 1106.070312 C 845.742188 1106.402344 847.835938 1106.660156 850.074219 1106.679688 C 854.542969 1106.746094 859.4375 1106.097656 864.472656 1104.925781 C 874.589844 1102.484375 885.132812 1097.992188 895.417969 1092.527344 C 916.054688 1081.484375 935.878906 1066.917969 954.898438 1051.355469 C 973.9375 1035.71875 992.269531 1018.863281 1010.113281 1001.417969 C 1027.960938 983.964844 1045.320312 965.886719 1062.339844 947.445312 C 1079.347656 928.992188 1096.015625 910.167969 1112.40625 891.074219 C 1128.796875 871.980469 1144.917969 852.628906 1160.808594 833.070312 C 1176.703125 813.511719 1192.371094 793.753906 1207.828125 773.828125 C 1221.367188 756.378906 1234.746094 738.808594 1247.964844 721.117188 C 1226.011719 721.621094 1210.382812 712.554688 1202.476562 706.609375 C 1209.507812 697.28125 1216.492188 687.925781 1223.417969 678.542969 C 1228.1875 682.058594 1235.839844 685.835938 1246.578125 685.476562 C 1257.28125 685.136719 1271.21875 680.582031 1288.03125 667.503906 L 1316.28125 687.410156 C 1309.074219 708.113281 1308.832031 722.703125 1311.597656 733.226562 Z M 1311.597656 733.226562 " fill-opacity="1" fill-rule="nonzero"/></g></g></g><g transform="matrix(1, 0, 0, 1, 544, 267)"><g clip-path="url(#e4fca9785b)"><g fill="#1e1e1e" fill-opacity="1"><g transform="translate(0.643058, 323.847044)"><g><path d="M 95.382812 -207.679688 L 24.792969 -207.679688 L 24.792969 0 L 89.546875 0 C 159.84375 0 191.054688 -41.128906 191.054688 -103.839844 C 191.054688 -167.71875 161.011719 -207.679688 95.382812 -207.679688 Z M 51.921875 -23.625 L 51.921875 -184.054688 L 88.378906 -184.054688 C 140.007812 -184.054688 163.34375 -158.96875 163.34375 -103.839844 C 163.34375 -49.878906 141.175781 -23.625 86.921875 -23.625 Z M 51.921875 -23.625 "/></g></g></g><g fill="#1e1e1e" fill-opacity="1"><g transform="translate(174.194972, 323.847044)"><g><path d="M 99.757812 4.375 C 157.21875 4.375 179.96875 -24.210938 179.96875 -57.171875 C 179.96875 -89.546875 158.96875 -107.921875 120.464844 -116.089844 L 84.003906 -123.964844 C 58.046875 -129.507812 47.835938 -138.84375 47.835938 -155.175781 C 47.835938 -177.054688 65.335938 -189.59375 95.089844 -189.59375 C 126.882812 -189.59375 145.257812 -175.59375 147.59375 -149.34375 L 173.554688 -149.34375 C 170.050781 -189.304688 142.050781 -211.765625 95.964844 -211.765625 C 48.128906 -211.765625 22.167969 -187.84375 22.167969 -152.84375 C 22.167969 -119.882812 46.667969 -105.882812 80.503906 -98.882812 L 109.671875 -92.757812 C 142.050781 -86.046875 153.71875 -75.253906 153.71875 -55.710938 C 153.71875 -32.378906 136.21875 -17.792969 100.632812 -17.792969 C 64.753906 -17.792969 43.753906 -32.667969 40.835938 -67.085938 L 14.875 -67.085938 C 18.375 -19.25 47.835938 4.375 99.757812 4.375 Z M 99.757812 4.375 "/></g></g></g><g fill="#1e1e1e" fill-opacity="1"><g transform="translate(334.621011, 323.847044)"><g><path d="M 51.921875 0 L 51.921875 -207.679688 L 24.792969 -207.679688 L 24.792969 0 Z M 51.921875 0 "/></g></g></g></g></g><g transform="matrix(1, 0, 0, 1, 351, 540)"><g clip-path="url(#e496e40102)"><g fill="#ffffff" fill-opacity="1"><g transform="translate(9.956041, 390.02926)"><g><path d="M 5.328125 -119.914062 L 120.445312 -119.914062 C 125.058594 -119.914062 129.261719 -120.167969 133.050781 -120.679688 C 131.289062 -120.445312 129.839844 -119.484375 128.710938 -117.800781 C 128.363281 -117.28125 128.136719 -116.816406 128.039062 -116.402344 C 128.070312 -116.53125 128.085938 -116.8125 128.085938 -117.25 C 128.085938 -117.65625 128.070312 -117.914062 128.046875 -118.015625 C 128.15625 -117.578125 128.390625 -117.089844 128.757812 -116.558594 C 129.875 -114.945312 131.261719 -114.027344 132.921875 -113.808594 C 128.996094 -114.324219 124.839844 -114.582031 120.445312 -114.582031 L 21.851562 -114.582031 L 21.851562 -225.792969 L 80.675781 -260.210938 L 87.402344 -248.707031 L 87.402344 -235.386719 L -6.574219 -235.386719 L -6.574219 -368.621094 L 244.625 -368.621094 L 244.625 -248.546875 L 146.738281 -191.03125 L 139.988281 -202.519531 L 138.945312 -215.804688 C 165.441406 -217.882812 187.859375 -214.636719 206.207031 -206.066406 C 225.09375 -197.242188 239.261719 -184.074219 248.710938 -166.566406 C 257.828125 -149.671875 262.386719 -129.796875 262.386719 -106.945312 C 262.386719 -82.824219 257.316406 -61.757812 247.171875 -43.738281 C 236.925781 -25.539062 222.699219 -11.445312 204.484375 -1.460938 C 186.5 8.394531 165.59375 13.324219 141.765625 13.324219 L -7.996094 13.324219 L -7.996094 -119.914062 Z M 5.328125 -93.265625 L 5.328125 -106.589844 L 18.652344 -106.589844 L 18.652344 0 L 5.328125 0 L 5.328125 -13.324219 L 141.765625 -13.324219 C 161.042969 -13.324219 177.679688 -17.160156 191.675781 -24.828125 C 205.4375 -32.375 216.195312 -43.035156 223.953125 -56.8125 C 231.8125 -70.769531 235.742188 -87.480469 235.742188 -106.945312 C 235.742188 -125.308594 232.246094 -140.964844 225.257812 -153.910156 C 218.601562 -166.25 208.488281 -175.585938 194.925781 -181.921875 C 180.820312 -188.511719 162.855469 -190.949219 141.03125 -189.238281 L 133.238281 -214.007812 L 224.550781 -267.65625 L 231.300781 -256.171875 L 217.976562 -256.171875 L 217.976562 -355.296875 L 231.300781 -355.296875 L 231.300781 -341.972656 L 6.75 -341.972656 L 6.75 -355.296875 L 20.074219 -355.296875 L 20.074219 -248.707031 L 6.75 -248.707031 L 6.75 -262.03125 L 136.5625 -262.03125 L 41.902344 -206.652344 L 35.175781 -218.152344 L 48.5 -218.152344 L 48.5 -127.90625 L 35.175781 -127.90625 L 35.175781 -141.230469 L 120.445312 -141.230469 C 126.003906 -141.230469 131.320312 -140.898438 136.394531 -140.230469 C 142.554688 -139.417969 147.316406 -136.578125 150.683594 -131.707031 C 153.382812 -127.796875 154.734375 -122.980469 154.734375 -117.25 C 154.734375 -111.578125 153.429688 -106.804688 150.820312 -102.925781 C 147.5 -97.988281 142.765625 -95.105469 136.621094 -94.273438 C 131.644531 -93.601562 126.253906 -93.265625 120.445312 -93.265625 Z M 5.328125 -93.265625 "/></g></g></g><g fill="#ffffff" fill-opacity="1"><g transform="translate(259.011371, 390.02926)"><g><path d="M -7.996094 -175.160156 C -7.996094 -200.535156 -4.753906 -224.878906 1.730469 -248.191406 C 8.304688 -271.835938 18.257812 -293.050781 31.589844 -311.84375 C 45.222656 -331.058594 62.246094 -346.191406 82.660156 -357.246094 C 103.230469 -368.382812 127.078125 -373.953125 154.199219 -373.953125 C 163.167969 -373.953125 170.941406 -373.265625 177.523438 -371.894531 C 182.949219 -370.765625 189.558594 -369.625 197.351562 -368.480469 L 206.871094 -367.082031 L 229.042969 -240.847656 L 211.265625 -242.9375 C 207.390625 -243.394531 203.394531 -243.792969 199.28125 -244.136719 C 195.386719 -244.460938 191.375 -244.621094 187.242188 -244.621094 C 175.785156 -244.621094 164.636719 -242.640625 153.796875 -238.679688 C 144.382812 -235.242188 136.339844 -228.089844 129.667969 -217.222656 L 118.3125 -224.191406 L 109.914062 -234.535156 C 119.113281 -242.011719 129.234375 -246.984375 140.277344 -249.453125 C 150.234375 -251.679688 160.5625 -252.796875 171.253906 -252.796875 C 186.613281 -252.796875 200.179688 -249.855469 211.941406 -243.972656 C 223.964844 -237.960938 233.890625 -229.015625 241.714844 -217.132812 C 256.207031 -195.132812 263.453125 -164.796875 263.453125 -126.132812 C 263.453125 -105.917969 260.421875 -87.105469 254.363281 -69.699219 C 248.242188 -52.113281 239.476562 -36.699219 228.070312 -23.457031 C 216.519531 -10.050781 202.890625 0.316406 187.1875 7.636719 C 171.425781 14.980469 154.15625 18.652344 135.367188 18.652344 C 111.421875 18.652344 90.996094 14.824219 74.085938 7.160156 C 57.042969 -0.5625 42.953125 -11.203125 31.808594 -24.761719 C 20.96875 -37.953125 12.625 -53 6.773438 -69.898438 C 1.125 -86.210938 -2.757812 -103.492188 -4.886719 -121.746094 C -6.957031 -139.550781 -7.996094 -157.355469 -7.996094 -175.160156 Z M 18.652344 -175.160156 C 18.652344 -158.386719 19.628906 -141.609375 21.582031 -124.828125 C 23.484375 -108.5 26.941406 -93.097656 31.953125 -78.617188 C 36.761719 -64.722656 43.578125 -52.410156 52.398438 -41.679688 C 60.914062 -31.316406 71.808594 -23.125 85.085938 -17.109375 C 98.496094 -11.03125 115.257812 -7.996094 135.367188 -7.996094 C 150.21875 -7.996094 163.738281 -10.835938 175.929688 -16.519531 C 188.171875 -22.226562 198.824219 -30.335938 207.878906 -40.851562 C 217.082031 -51.53125 224.1875 -64.066406 229.199219 -78.460938 C 234.269531 -93.03125 236.804688 -108.921875 236.804688 -126.132812 C 236.804688 -159.472656 231.023438 -184.917969 219.460938 -202.472656 C 214.261719 -210.371094 207.78125 -216.257812 200.027344 -220.136719 C 192.011719 -224.144531 182.421875 -226.148438 171.253906 -226.148438 C 162.523438 -226.148438 154.136719 -225.246094 146.09375 -223.449219 C 139.132812 -221.890625 132.671875 -218.691406 126.714844 -213.851562 L 106.960938 -231.164062 C 116.867188 -247.300781 129.433594 -258.148438 144.652344 -263.710938 C 158.445312 -268.75 172.644531 -271.269531 187.242188 -271.269531 C 192.113281 -271.269531 196.863281 -271.078125 201.496094 -270.691406 C 205.910156 -270.324219 210.203125 -269.894531 214.378906 -269.402344 L 212.824219 -256.171875 L 199.699219 -253.867188 L 182.292969 -352.992188 L 195.414062 -355.296875 L 193.476562 -342.117188 C 185.160156 -343.339844 178.03125 -344.570312 172.089844 -345.808594 C 167.300781 -346.804688 161.335938 -347.304688 154.199219 -347.304688 C 131.578125 -347.304688 111.960938 -342.804688 95.347656 -333.8125 C 78.570312 -324.730469 64.5625 -312.265625 53.324219 -296.425781 C 41.789062 -280.164062 33.148438 -261.707031 27.402344 -241.054688 C 21.570312 -220.074219 18.652344 -198.109375 18.652344 -175.160156 Z M 127.195312 -176.050781 C 126.75 -176.050781 126.425781 -176.019531 126.222656 -175.953125 C 126.269531 -175.96875 126.328125 -176.003906 126.402344 -176.0625 C 126.109375 -175.828125 125.769531 -175.070312 125.378906 -173.785156 C 123.394531 -167.226562 122.402344 -158.210938 122.402344 -146.738281 C 122.402344 -135.265625 123.394531 -126.25 125.378906 -119.691406 C 125.769531 -118.40625 126.109375 -117.648438 126.402344 -117.414062 C 126.328125 -117.472656 126.269531 -117.507812 126.222656 -117.523438 C 126.425781 -117.457031 126.75 -117.425781 127.195312 -117.425781 C 127.730469 -117.425781 128.121094 -117.464844 128.375 -117.546875 C 128.332031 -117.53125 128.261719 -117.488281 128.167969 -117.414062 C 128.132812 -117.382812 128.105469 -117.355469 128.085938 -117.339844 C 128.117188 -117.375 128.160156 -117.433594 128.210938 -117.519531 C 128.460938 -117.941406 128.695312 -118.546875 128.910156 -119.332031 C 130.726562 -126 131.636719 -135.136719 131.636719 -146.738281 C 131.636719 -158.339844 130.726562 -167.472656 128.910156 -174.144531 C 128.695312 -174.929688 128.460938 -175.53125 128.210938 -175.957031 C 128.160156 -176.042969 128.117188 -176.101562 128.085938 -176.136719 C 128.105469 -176.117188 128.132812 -176.09375 128.167969 -176.0625 C 128.261719 -175.988281 128.332031 -175.945312 128.375 -175.929688 C 128.121094 -176.011719 127.730469 -176.050781 127.195312 -176.050781 Z M 127.195312 -202.699219 C 134.117188 -202.699219 140.011719 -200.738281 144.878906 -196.824219 C 149.546875 -193.0625 152.796875 -187.839844 154.617188 -181.15625 C 157.0625 -172.191406 158.285156 -160.71875 158.285156 -146.738281 C 158.285156 -132.757812 157.0625 -121.285156 154.617188 -112.320312 C 152.796875 -105.636719 149.546875 -100.414062 144.878906 -96.652344 C 140.011719 -92.738281 134.117188 -90.777344 127.195312 -90.777344 C 120.394531 -90.777344 114.558594 -92.738281 109.695312 -96.652344 C 105.128906 -100.328125 101.859375 -105.429688 99.878906 -111.964844 C 97.128906 -121.039062 95.753906 -132.632812 95.753906 -146.738281 C 95.753906 -160.84375 97.128906 -172.4375 99.878906 -181.511719 C 101.859375 -188.046875 105.128906 -193.148438 109.695312 -196.824219 C 114.558594 -200.738281 120.394531 -202.699219 127.195312 -202.699219 Z M 127.195312 -202.699219 "/></g></g></g><g fill="#ffffff" fill-opacity="1"><g transform="translate(509.132563, 390.02926)"><g><path d="M 139.277344 19.007812 C 105.214844 19.007812 77.097656 10.441406 54.921875 -6.6875 C 33.019531 -23.605469 16.960938 -47.128906 6.746094 -77.261719 C -3.082031 -106.246094 -7.996094 -139.707031 -7.996094 -177.648438 C -7.996094 -215.839844 -3.078125 -249.3125 6.757812 -278.070312 C 16.976562 -307.953125 33.03125 -331.347656 54.921875 -348.253906 C 77.097656 -365.386719 105.214844 -373.953125 139.277344 -373.953125 C 173.335938 -373.953125 201.457031 -365.386719 223.632812 -348.253906 C 245.507812 -331.359375 261.617188 -307.980469 271.957031 -278.117188 C 281.921875 -249.347656 286.902344 -215.859375 286.902344 -177.648438 C 286.902344 -139.691406 281.925781 -106.210938 271.96875 -77.214844 C 261.628906 -47.101562 245.519531 -23.59375 223.632812 -6.6875 C 201.457031 10.441406 173.335938 19.007812 139.277344 19.007812 Z M 139.277344 -7.640625 C 167.273438 -7.640625 189.964844 -14.351562 207.34375 -27.777344 C 225.015625 -41.425781 238.15625 -60.789062 246.765625 -85.867188 C 255.757812 -112.058594 260.257812 -142.65625 260.257812 -177.648438 C 260.257812 -212.867188 255.761719 -243.453125 246.777344 -269.398438 C 238.167969 -294.25 225.023438 -313.507812 207.34375 -327.167969 C 189.964844 -340.589844 167.273438 -347.304688 139.277344 -347.304688 C 111.277344 -347.304688 88.589844 -340.589844 71.210938 -327.167969 C 53.542969 -313.519531 40.464844 -294.28125 31.972656 -269.445312 C 23.09375 -243.484375 18.652344 -212.886719 18.652344 -177.648438 C 18.652344 -142.636719 23.097656 -112.027344 31.980469 -85.820312 C 40.476562 -60.761719 53.554688 -41.414062 71.210938 -27.777344 C 88.589844 -14.351562 111.277344 -7.640625 139.277344 -7.640625 Z M 140.34375 -243.203125 C 134.394531 -243.203125 130.382812 -241.800781 128.308594 -239 C 125.019531 -234.558594 122.90625 -227.859375 121.972656 -218.90625 C 120.835938 -207.992188 120.269531 -195.070312 120.269531 -180.136719 C 120.269531 -165.433594 120.835938 -152.566406 121.976562 -141.53125 C 122.910156 -132.464844 125.019531 -125.710938 128.308594 -121.269531 C 130.382812 -118.472656 134.394531 -117.070312 140.34375 -117.070312 C 146.289062 -117.070312 150.300781 -118.472656 152.375 -121.269531 C 155.664062 -125.710938 157.777344 -132.464844 158.710938 -141.53125 C 159.847656 -152.566406 160.417969 -165.433594 160.417969 -180.136719 C 160.417969 -195.070312 159.847656 -207.992188 158.710938 -218.90625 C 157.78125 -227.859375 155.667969 -234.558594 152.375 -239 C 150.300781 -241.800781 146.289062 -243.203125 140.34375 -243.203125 Z M 140.34375 -269.847656 C 155.238281 -269.847656 166.386719 -264.855469 173.789062 -254.863281 C 179.972656 -246.515625 183.78125 -235.449219 185.214844 -221.664062 C 186.449219 -209.835938 187.066406 -195.992188 187.066406 -180.136719 C 187.066406 -164.519531 186.449219 -150.742188 185.21875 -138.800781 C 183.785156 -124.890625 179.972656 -113.761719 173.789062 -105.410156 C 166.386719 -95.417969 155.238281 -90.421875 140.34375 -90.421875 C 125.445312 -90.421875 114.296875 -95.417969 106.898438 -105.410156 C 100.710938 -113.761719 96.902344 -124.890625 95.46875 -138.800781 C 94.238281 -150.742188 93.621094 -164.519531 93.621094 -180.136719 C 93.621094 -195.992188 94.238281 -209.835938 95.46875 -221.664062 C 96.90625 -235.449219 100.714844 -246.515625 106.898438 -254.863281 C 114.296875 -264.855469 125.445312 -269.847656 140.34375 -269.847656 Z M 140.34375 -269.847656 "/></g></g></g><g fill="#1e1e1e" fill-opacity="1"><g transform="translate(9.956041, 390.02926)"><g><path d="M 5.328125 -106.59375 L 120.453125 -106.59375 C 125.660156 -106.59375 130.453125 -106.882812 134.828125 -107.46875 C 139.210938 -108.0625 141.40625 -111.320312 141.40625 -117.25 C 141.40625 -123.164062 139.15625 -126.421875 134.65625 -127.015625 C 130.15625 -127.609375 125.421875 -127.90625 120.453125 -127.90625 L 35.171875 -127.90625 L 35.171875 -218.15625 L 87.40625 -248.703125 L 6.75 -248.703125 L 6.75 -355.296875 L 231.296875 -355.296875 L 231.296875 -256.171875 L 139.984375 -202.515625 C 164.148438 -204.410156 184.34375 -201.566406 200.5625 -193.984375 C 216.789062 -186.410156 228.929688 -175.160156 236.984375 -160.234375 C 245.035156 -145.316406 249.0625 -127.550781 249.0625 -106.9375 C 249.0625 -85.144531 244.5625 -66.253906 235.5625 -50.265625 C 226.5625 -34.285156 214.066406 -21.910156 198.078125 -13.140625 C 182.085938 -4.378906 163.316406 0 141.765625 0 L 5.328125 0 Z M 5.328125 -106.59375 "/></g></g></g><g fill="#1e1e1e" fill-opacity="1"><g transform="translate(259.011371, 390.02926)"><g><path d="M 5.328125 -175.15625 C 5.328125 -199.320312 8.40625 -222.476562 14.5625 -244.625 C 20.726562 -266.769531 30.023438 -286.601562 42.453125 -304.125 C 54.890625 -321.65625 70.40625 -335.453125 89 -345.515625 C 107.59375 -355.585938 129.328125 -360.625 154.203125 -360.625 C 162.253906 -360.625 169.117188 -360.03125 174.796875 -358.84375 C 180.484375 -357.664062 187.351562 -356.484375 195.40625 -355.296875 L 212.828125 -256.171875 C 208.796875 -256.640625 204.644531 -257.050781 200.375 -257.40625 C 196.113281 -257.769531 191.734375 -257.953125 187.234375 -257.953125 C 174.210938 -257.953125 161.539062 -255.695312 149.21875 -251.1875 C 136.90625 -246.6875 126.601562 -237.6875 118.3125 -224.1875 C 125.894531 -230.351562 134.1875 -234.441406 143.1875 -236.453125 C 152.1875 -238.460938 161.539062 -239.46875 171.25 -239.46875 C 197.78125 -239.46875 217.554688 -229.578125 230.578125 -209.796875 C 243.609375 -190.023438 250.125 -162.132812 250.125 -126.125 C 250.125 -107.414062 247.34375 -90.066406 241.78125 -74.078125 C 236.21875 -58.085938 228.28125 -44.113281 217.96875 -32.15625 C 207.664062 -20.195312 195.523438 -10.957031 181.546875 -4.4375 C 167.578125 2.070312 152.1875 5.328125 135.375 5.328125 C 113.34375 5.328125 94.742188 1.894531 79.578125 -4.96875 C 64.421875 -11.84375 51.925781 -21.257812 42.09375 -33.21875 C 32.269531 -45.175781 24.691406 -58.851562 19.359375 -74.25 C 14.035156 -89.644531 10.363281 -105.988281 8.34375 -123.28125 C 6.332031 -140.570312 5.328125 -157.863281 5.328125 -175.15625 Z M 127.203125 -189.375 C 119.859375 -189.375 115 -185.460938 112.625 -177.640625 C 110.257812 -169.828125 109.078125 -159.523438 109.078125 -146.734375 C 109.078125 -133.941406 110.257812 -123.640625 112.625 -115.828125 C 115 -108.015625 119.859375 -104.109375 127.203125 -104.109375 C 134.773438 -104.109375 139.628906 -108.015625 141.765625 -115.828125 C 143.898438 -123.640625 144.96875 -133.941406 144.96875 -146.734375 C 144.96875 -159.523438 143.898438 -169.828125 141.765625 -177.640625 C 139.628906 -185.460938 134.773438 -189.375 127.203125 -189.375 Z M 127.203125 -189.375 "/></g></g></g><g fill="#1e1e1e" fill-opacity="1"><g transform="translate(509.132563, 390.02926)"><g><path d="M 139.28125 5.6875 C 108.25 5.6875 82.84375 -1.953125 63.0625 -17.234375 C 43.28125 -32.515625 28.710938 -53.953125 19.359375 -81.546875 C 10.003906 -109.140625 5.328125 -141.171875 5.328125 -177.640625 C 5.328125 -214.359375 10.003906 -246.394531 19.359375 -273.75 C 28.710938 -301.113281 43.28125 -322.429688 63.0625 -337.703125 C 82.84375 -352.984375 108.25 -360.625 139.28125 -360.625 C 170.300781 -360.625 195.703125 -352.984375 215.484375 -337.703125 C 235.265625 -322.429688 249.890625 -301.113281 259.359375 -273.75 C 268.835938 -246.394531 273.578125 -214.359375 273.578125 -177.640625 C 273.578125 -141.171875 268.835938 -109.140625 259.359375 -81.546875 C 249.890625 -53.953125 235.265625 -32.515625 215.484375 -17.234375 C 195.703125 -1.953125 170.300781 5.6875 139.28125 5.6875 Z M 140.34375 -256.53125 C 129.914062 -256.53125 122.332031 -253.332031 117.59375 -246.9375 C 112.863281 -240.539062 109.90625 -231.65625 108.71875 -220.28125 C 107.53125 -208.914062 106.9375 -195.535156 106.9375 -180.140625 C 106.9375 -164.972656 107.53125 -151.644531 108.71875 -140.15625 C 109.90625 -128.675781 112.863281 -119.738281 117.59375 -113.34375 C 122.332031 -106.945312 129.914062 -103.75 140.34375 -103.75 C 150.757812 -103.75 158.335938 -106.945312 163.078125 -113.34375 C 167.816406 -119.738281 170.773438 -128.675781 171.953125 -140.15625 C 173.140625 -151.644531 173.734375 -164.972656 173.734375 -180.140625 C 173.734375 -195.535156 173.140625 -208.914062 171.953125 -220.28125 C 170.773438 -231.65625 167.816406 -240.539062 163.078125 -246.9375 C 158.335938 -253.332031 150.757812 -256.53125 140.34375 -256.53125 Z M 140.34375 -256.53125 "/></g></g></g></g></g></svg>