<svg xmlns="http://www.w3.org/2000/svg" xmlns:xlink="http://www.w3.org/1999/xlink" width="2000" zoomAndPan="magnify" viewBox="0 0 1500 1499.999933" height="2000" preserveAspectRatio="xMidYMid meet" version="1.0"><defs><g/><clipPath id="b3b87653dd"><rect x="0" width="815" y="0" height="940"/></clipPath></defs><g transform="matrix(1, 0, 0, 1, 524, 333)"><g clip-path="url(#b3b87653dd)"><g fill="#ffffff" fill-opacity="1"><g transform="translate(0.575476, 436.135151)"><g><path d="M 32.15625 -302.03125 L 153.515625 -302.03125 C 204.222656 -302.03125 241.800781 -289.425781 266.25 -264.21875 C 290.707031 -239.019531 302.9375 -201.210938 302.9375 -150.796875 C 302.9375 -100.679688 290.707031 -63.019531 266.25 -37.8125 C 241.800781 -12.601562 204.222656 0 153.515625 0 L 32.15625 0 Z M 144.90625 -56.609375 C 172.375 -56.609375 193.050781 -64.304688 206.9375 -79.703125 C 220.820312 -95.097656 227.765625 -118.796875 227.765625 -150.796875 C 227.765625 -183.398438 220.820312 -207.320312 206.9375 -222.5625 C 193.050781 -237.8125 172.375 -245.4375 144.90625 -245.4375 L 105.515625 -245.4375 L 105.515625 -56.609375 Z M 144.90625 -56.609375 "/></g></g></g><g fill="#ffffff" fill-opacity="1"><g transform="translate(308.955255, 436.135151)"><g><path d="M 133.578125 6.34375 C 110.640625 6.34375 90.71875 4.753906 73.8125 1.578125 C 56.90625 -1.585938 41.207031 -6.941406 26.71875 -14.484375 L 26.71875 -84.21875 C 40.300781 -73.351562 55.769531 -64.976562 73.125 -59.09375 C 90.488281 -53.207031 107.472656 -50.265625 124.078125 -50.265625 C 152.453125 -50.265625 166.640625 -60.984375 166.640625 -82.421875 C 166.640625 -91.773438 162.109375 -99.09375 153.046875 -104.375 C 143.992188 -109.65625 129.351562 -115.617188 109.125 -122.265625 C 99.769531 -125.285156 94.035156 -127.25 91.921875 -128.15625 C 70.191406 -135.394531 53.0625 -145.203125 40.53125 -157.578125 C 28 -169.960938 21.734375 -188.378906 21.734375 -212.828125 C 21.734375 -230.035156 25.957031 -245.957031 34.40625 -260.59375 C 42.863281 -275.238281 55.847656 -286.9375 73.359375 -295.6875 C 90.867188 -304.445312 112.453125 -308.828125 138.109375 -308.828125 C 155.921875 -308.828125 171.238281 -307.238281 184.0625 -304.0625 C 196.894531 -300.894531 210.5625 -295.84375 225.0625 -288.90625 L 225.0625 -218.71875 C 212.375 -228.375 198.785156 -236.367188 184.296875 -242.703125 C 169.804688 -249.046875 155.164062 -252.21875 140.375 -252.21875 C 127.09375 -252.21875 116.453125 -249.578125 108.453125 -244.296875 C 100.453125 -239.015625 96.453125 -231.394531 96.453125 -221.4375 C 96.453125 -213.582031 98.863281 -207.164062 103.6875 -202.1875 C 108.519531 -197.207031 114.484375 -193.359375 121.578125 -190.640625 C 128.671875 -187.921875 140.066406 -184.144531 155.765625 -179.3125 C 174.484375 -173.882812 189.878906 -167.847656 201.953125 -161.203125 C 214.035156 -154.566406 223.695312 -145.660156 230.9375 -134.484375 C 238.1875 -123.316406 241.8125 -108.976562 241.8125 -91.46875 C 241.8125 -73.050781 237.582031 -56.445312 229.125 -41.65625 C 220.675781 -26.863281 208.222656 -15.164062 191.765625 -6.5625 C 175.316406 2.039062 155.921875 6.34375 133.578125 6.34375 Z M 133.578125 6.34375 "/></g></g></g><g fill="#ffffff" fill-opacity="1"><g transform="translate(556.655252, 436.135151)"><g><path d="M 32.15625 -302.03125 L 105.515625 -302.03125 L 105.515625 0 L 32.15625 0 Z M 32.15625 -302.03125 "/></g></g></g><g fill="#ffffff" fill-opacity="1"><g transform="translate(0.575476, 842.908456)"><g><path d="M 120.90625 3.625 C 92.226562 3.625 62.796875 -4.222656 32.609375 -19.921875 L 32.609375 -82.421875 C 49.515625 -72.453125 64.378906 -64.828125 77.203125 -59.546875 C 90.035156 -54.265625 103.546875 -51.625 117.734375 -51.625 C 135.242188 -51.625 148.90625 -54.867188 158.71875 -61.359375 C 168.53125 -67.847656 173.4375 -76.976562 173.4375 -88.75 C 173.4375 -115.320312 154.414062 -128.609375 116.375 -128.609375 L 71.546875 -128.609375 L 71.546875 -183.84375 L 117.28125 -183.84375 C 131.46875 -183.84375 142.109375 -186.785156 149.203125 -192.671875 C 156.296875 -198.566406 159.84375 -206.191406 159.84375 -215.546875 C 159.84375 -227.316406 155.238281 -235.921875 146.03125 -241.359375 C 136.820312 -246.796875 124.820312 -249.515625 110.03125 -249.515625 C 99.164062 -249.515625 88.222656 -248.15625 77.203125 -245.4375 C 66.179688 -242.71875 53.273438 -237.882812 38.484375 -230.9375 L 38.484375 -286.640625 C 50.265625 -292.679688 62.945312 -297.4375 76.53125 -300.90625 C 90.113281 -304.375 103.695312 -306.109375 117.28125 -306.109375 C 147.46875 -306.109375 172.898438 -299.164062 193.578125 -285.28125 C 214.265625 -271.394531 224.609375 -250.867188 224.609375 -223.703125 C 224.609375 -213.128906 222.113281 -203.460938 217.125 -194.703125 C 212.144531 -185.953125 206.109375 -178.9375 199.015625 -173.65625 C 191.921875 -168.375 185.503906 -165.128906 179.765625 -163.921875 C 188.828125 -161.203125 197.8125 -156.367188 206.71875 -149.421875 C 215.625 -142.484375 223.019531 -133.503906 228.90625 -122.484375 C 234.789062 -111.472656 237.734375 -99.019531 237.734375 -85.125 C 237.734375 -55.238281 226.640625 -32.972656 204.453125 -18.328125 C 182.265625 -3.691406 154.414062 3.625 120.90625 3.625 Z M 120.90625 3.625 "/></g></g></g><g fill="#ffffff" fill-opacity="1"><g transform="translate(256.426552, 842.908456)"><g><path d="M 158.484375 -197.890625 C 228.222656 -197.585938 263.09375 -163.925781 263.09375 -96.90625 C 263.09375 -76.976562 258.410156 -59.316406 249.046875 -43.921875 C 239.691406 -28.523438 225.726562 -16.445312 207.15625 -7.6875 C 188.59375 1.0625 165.726562 5.4375 138.5625 5.4375 C 59.46875 5.4375 19.921875 -42.863281 19.921875 -139.46875 C 19.921875 -205.582031 35.238281 -250.1875 65.875 -273.28125 C 96.519531 -296.375 131.015625 -307.921875 169.359375 -307.921875 C 195.617188 -307.921875 217.503906 -304.148438 235.015625 -296.609375 L 235.015625 -235.46875 C 225.054688 -240 215.394531 -243.394531 206.03125 -245.65625 C 196.675781 -247.925781 186.265625 -249.0625 174.796875 -249.0625 C 151.242188 -249.0625 132.375 -242.191406 118.1875 -228.453125 C 104 -214.710938 95.847656 -194.410156 93.734375 -167.546875 C 110.335938 -187.472656 131.921875 -197.585938 158.484375 -197.890625 Z M 144 -54.34375 C 159.394531 -54.34375 170.789062 -58.644531 178.1875 -67.25 C 185.582031 -75.851562 189.28125 -86.191406 189.28125 -98.265625 C 189.28125 -113.359375 185.429688 -124.828125 177.734375 -132.671875 C 170.035156 -140.523438 159.394531 -144.453125 145.8125 -144.453125 C 120.144531 -144.453125 103.390625 -133.734375 95.546875 -112.296875 C 98.265625 -89.660156 103.625 -74.34375 111.625 -66.34375 C 119.625 -58.34375 130.414062 -54.34375 144 -54.34375 Z M 144 -54.34375 "/></g></g></g><g fill="#ffffff" fill-opacity="1"><g transform="translate(525.862671, 842.908456)"><g><path d="M 150.796875 5.890625 C 105.816406 5.890625 72.679688 -7.015625 51.390625 -32.828125 C 30.109375 -58.640625 19.46875 -97.960938 19.46875 -150.796875 C 19.46875 -203.617188 30.109375 -242.9375 51.390625 -268.75 C 72.679688 -294.5625 105.816406 -307.46875 150.796875 -307.46875 C 195.773438 -307.46875 228.976562 -294.5625 250.40625 -268.75 C 271.84375 -242.9375 282.5625 -203.617188 282.5625 -150.796875 C 282.5625 -97.960938 271.84375 -58.640625 250.40625 -32.828125 C 228.976562 -7.015625 195.773438 5.890625 150.796875 5.890625 Z M 150.796875 -53.4375 C 168.003906 -53.4375 181.8125 -60.078125 192.21875 -73.359375 C 202.632812 -86.640625 207.84375 -112.453125 207.84375 -150.796875 C 207.84375 -188.828125 202.632812 -214.5625 192.21875 -228 C 181.8125 -241.4375 168.003906 -248.15625 150.796875 -248.15625 C 133.890625 -248.15625 120.226562 -241.4375 109.8125 -228 C 99.394531 -214.5625 94.1875 -188.828125 94.1875 -150.796875 C 94.1875 -112.453125 99.394531 -86.640625 109.8125 -73.359375 C 120.226562 -60.078125 133.890625 -53.4375 150.796875 -53.4375 Z M 150.796875 -53.4375 "/></g></g></g></g></g><path fill="#9cff1e" d="M 418.601562 560.140625 C 355.566406 473.984375 168.550781 429.863281 118.121094 400.449219 C 67.695312 371.03125 71.898438 295.382812 71.898438 295.382812 C 71.898438 295.382812 321.949219 427.753906 347.164062 446.667969 C 372.378906 465.574219 391.296875 501.300781 418.605469 560.136719 " fill-opacity="1" fill-rule="nonzero"/><path fill="#9cff1e" d="M 452.554688 633.972656 C 394.515625 567.96875 234.222656 543.214844 190 522.371094 C 145.789062 501.511719 145.09375 440.070312 145.09375 440.070312 C 145.09375 440.070312 363.546875 532.535156 385.894531 546.363281 C 408.230469 560.179688 426.195312 587.976562 452.554688 633.972656 " fill-opacity="1" fill-rule="nonzero"/><path fill="#9cff1e" d="M 486.175781 694.914062 C 433.714844 646.335938 286.925781 629.769531 246.597656 614.722656 C 206.28125 599.699219 206.371094 553.84375 206.371094 553.84375 C 206.371094 553.84375 405.722656 620.261719 426.054688 630.308594 C 446.398438 640.359375 462.539062 660.882812 486.175781 694.914062 " fill-opacity="1" fill-rule="nonzero"/></svg>